<?xml version="1.0" encoding="UTF-8" standalone="no"?>
<!DOCTYPE svg PUBLIC "-//W3C//DTD SVG 1.1//EN"
 "http://www.w3.org/Graphics/SVG/1.1/DTD/svg11.dtd">
<!-- Generated by graphviz version 2.43.0 (0)
 -->
<!-- Title: %3 Pages: 1 -->
<svg width="521pt" height="440pt"
 viewBox="0.00 0.00 520.99 440.50" xmlns="http://www.w3.org/2000/svg" xmlns:xlink="http://www.w3.org/1999/xlink">
<g id="graph0" class="graph" transform="scale(1 1) rotate(0) translate(4 436.5)">
<title>%3</title>
<polygon fill="white" stroke="transparent" points="-4,4 -4,-436.5 516.99,-436.5 516.99,4 -4,4"/>
<!-- I1 -->
<g id="node1" class="node">
<title>I1</title>
<polygon fill="lightgray" stroke="black" points="26,-412.51 0,-412.51 0,-394.51 26,-394.51 26,-412.51"/>
<text text-anchor="middle" x="13" y="-401.31" font-family="Times,serif" font-size="9.00">I1</text>
</g>
<!-- right -->
<g id="node10" class="node">
<title>right</title>
<ellipse fill="lightblue" stroke="black" cx="43" cy="-310.23" rx="28.07" ry="28.07"/>
<text text-anchor="middle" x="43" y="-308.03" font-family="Times,serif" font-size="9.00">right</text>
</g>
<!-- I1&#45;&gt;right -->
<g id="edge3" class="edge">
<title>I1&#45;&gt;right</title>
<path fill="none" stroke="green" stroke-width="1.52" d="M15.66,-394.41C19.14,-383.83 25.45,-364.62 31.14,-347.33"/>
<polygon fill="green" stroke="green" stroke-width="1.52" points="34.59,-348.04 34.38,-337.45 27.94,-345.85 34.59,-348.04"/>
</g>
<!-- I2 -->
<g id="node2" class="node">
<title>I2</title>
<polygon fill="lightgray" stroke="black" points="70,-412.51 44,-412.51 44,-394.51 70,-394.51 70,-412.51"/>
<text text-anchor="middle" x="57" y="-401.31" font-family="Times,serif" font-size="9.00">I2</text>
</g>
<!-- I2&#45;&gt;right -->
<g id="edge2" class="edge">
<title>I2&#45;&gt;right</title>
<path fill="none" stroke="red" stroke-width="1.12" d="M55.76,-394.41C54.17,-384.07 51.32,-365.5 48.72,-348.53"/>
<polygon fill="red" stroke="red" stroke-width="1.12" points="52.12,-347.6 47.14,-338.25 45.2,-348.66 52.12,-347.6"/>
</g>
<!-- I3 -->
<g id="node3" class="node">
<title>I3</title>
<polygon fill="lightgray" stroke="black" points="126,-412.51 100,-412.51 100,-394.51 126,-394.51 126,-412.51"/>
<text text-anchor="middle" x="113" y="-401.31" font-family="Times,serif" font-size="9.00">I3</text>
</g>
<!-- left -->
<g id="node9" class="node">
<title>left</title>
<ellipse fill="lightblue" stroke="black" cx="127" cy="-310.23" rx="22.76" ry="22.76"/>
<text text-anchor="middle" x="127" y="-308.03" font-family="Times,serif" font-size="9.00">left</text>
</g>
<!-- I3&#45;&gt;left -->
<g id="edge8" class="edge">
<title>I3&#45;&gt;left</title>
<path fill="none" stroke="red" stroke-width="0.37" d="M114.24,-394.41C116.01,-382.9 119.34,-361.18 122.15,-342.82"/>
<polygon fill="red" stroke="red" stroke-width="0.37" points="125.64,-343.2 123.69,-332.78 118.72,-342.14 125.64,-343.2"/>
</g>
<!-- I4 -->
<g id="node4" class="node">
<title>I4</title>
<polygon fill="lightgray" stroke="black" points="116,-131.97 90,-131.97 90,-113.97 116,-113.97 116,-131.97"/>
<text text-anchor="middle" x="103" y="-120.77" font-family="Times,serif" font-size="9.00">I4</text>
</g>
<!-- 1325 -->
<g id="node16" class="node">
<title>1325</title>
<ellipse fill="white" stroke="black" cx="73" cy="-28.99" rx="28.98" ry="28.98"/>
<text text-anchor="middle" x="73" y="-26.79" font-family="Times,serif" font-size="9.00">1325</text>
</g>
<!-- I4&#45;&gt;1325 -->
<g id="edge9" class="edge">
<title>I4&#45;&gt;1325</title>
<path fill="none" stroke="green" stroke-width="0.2" d="M100.34,-113.81C96.89,-103.23 90.64,-84.06 84.98,-66.73"/>
<polygon fill="green" stroke="green" stroke-width="0.2" points="88.18,-65.23 81.75,-56.81 81.52,-67.41 88.18,-65.23"/>
</g>
<!-- I5 -->
<g id="node5" class="node">
<title>I5</title>
<polygon fill="lightgray" stroke="black" points="170,-412.51 144,-412.51 144,-394.51 170,-394.51 170,-412.51"/>
<text text-anchor="middle" x="157" y="-401.31" font-family="Times,serif" font-size="9.00">I5</text>
</g>
<!-- I5&#45;&gt;left -->
<g id="edge1" class="edge">
<title>I5&#45;&gt;left</title>
<path fill="none" stroke="green" stroke-width="2.52" d="M154.34,-394.41C150.47,-382.65 143.1,-360.22 136.98,-341.61"/>
<polygon fill="green" stroke="green" stroke-width="2.52" points="140.28,-340.44 133.84,-332.03 133.63,-342.62 140.28,-340.44"/>
</g>
<!-- I6 -->
<g id="node6" class="node">
<title>I6</title>
<polygon fill="lightgray" stroke="black" points="214,-412.51 188,-412.51 188,-394.51 214,-394.51 214,-412.51"/>
<text text-anchor="middle" x="201" y="-401.31" font-family="Times,serif" font-size="9.00">I6</text>
</g>
<!-- I7 -->
<g id="node7" class="node">
<title>I7</title>
<polygon fill="lightgray" stroke="black" points="258,-412.51 232,-412.51 232,-394.51 258,-394.51 258,-412.51"/>
<text text-anchor="middle" x="245" y="-401.31" font-family="Times,serif" font-size="9.00">I7</text>
</g>
<!-- I8 -->
<g id="node8" class="node">
<title>I8</title>
<polygon fill="lightgray" stroke="black" points="302,-412.51 276,-412.51 276,-394.51 302,-394.51 302,-412.51"/>
<text text-anchor="middle" x="289" y="-401.31" font-family="Times,serif" font-size="9.00">I8</text>
</g>
<!-- 1194 -->
<g id="node14" class="node">
<title>1194</title>
<ellipse fill="white" stroke="black" cx="166" cy="-122.97" rx="28.98" ry="28.98"/>
<text text-anchor="middle" x="166" y="-120.77" font-family="Times,serif" font-size="9.00">1194</text>
</g>
<!-- left&#45;&gt;1194 -->
<g id="edge7" class="edge">
<title>left&#45;&gt;1194</title>
<path fill="none" stroke="red" stroke-width="0.34" stroke-dasharray="1,5" d="M126.57,-287.39C126.6,-262.82 128.19,-221.91 137,-187.97 139.62,-177.87 143.72,-167.38 148.03,-157.89"/>
<polygon fill="red" stroke="red" stroke-width="0.34" points="151.23,-159.31 152.35,-148.77 144.9,-156.31 151.23,-159.31"/>
</g>
<!-- 3184 -->
<g id="node18" class="node">
<title>3184</title>
<ellipse fill="white" stroke="black" cx="175" cy="-216.96" rx="28.98" ry="28.98"/>
<text text-anchor="middle" x="175" y="-214.76" font-family="Times,serif" font-size="9.00">3184</text>
</g>
<!-- left&#45;&gt;3184 -->
<g id="edge10" class="edge">
<title>left&#45;&gt;3184</title>
<path fill="none" stroke="green" stroke-width="0.36" d="M137.18,-289.88C142.98,-278.84 150.42,-264.7 157.16,-251.88"/>
<polygon fill="green" stroke="green" stroke-width="0.36" points="160.35,-253.33 161.91,-242.85 154.16,-250.07 160.35,-253.33"/>
</g>
<!-- 2575 -->
<g id="node17" class="node">
<title>2575</title>
<ellipse fill="white" stroke="black" cx="43" cy="-216.96" rx="28.98" ry="28.98"/>
<text text-anchor="middle" x="43" y="-214.76" font-family="Times,serif" font-size="9.00">2575</text>
</g>
<!-- right&#45;&gt;2575 -->
<g id="edge5" class="edge">
<title>right&#45;&gt;2575</title>
<path fill="none" stroke="green" stroke-width="0.2" d="M43,-281.85C43,-273.78 43,-264.81 43,-256.2"/>
<polygon fill="green" stroke="green" stroke-width="0.2" points="46.5,-255.96 43,-245.96 39.5,-255.96 46.5,-255.96"/>
</g>
<!-- 2370 -->
<g id="node11" class="node">
<title>2370</title>
<ellipse fill="white" stroke="black" cx="43" cy="-122.97" rx="28.98" ry="28.98"/>
<text text-anchor="middle" x="43" y="-120.77" font-family="Times,serif" font-size="9.00">2370</text>
</g>
<!-- 2370&#45;&gt;1325 -->
<g id="edge6" class="edge">
<title>2370&#45;&gt;1325</title>
<path fill="none" stroke="red" stroke-width="0.57" d="M51.84,-94.87C54.74,-85.98 58.01,-75.96 61.1,-66.49"/>
<polygon fill="red" stroke="red" stroke-width="0.57" points="64.45,-67.49 64.22,-56.9 57.8,-65.32 64.45,-67.49"/>
</g>
<!-- 521 -->
<g id="node12" class="node">
<title>521</title>
<ellipse fill="white" stroke="black" cx="345" cy="-403.51" rx="25" ry="25"/>
<text text-anchor="middle" x="345" y="-401.31" font-family="Times,serif" font-size="9.00">521</text>
</g>
<!-- 490 -->
<g id="node13" class="node">
<title>490</title>
<ellipse fill="white" stroke="black" cx="412" cy="-403.51" rx="25" ry="25"/>
<text text-anchor="middle" x="412" y="-401.31" font-family="Times,serif" font-size="9.00">490</text>
</g>
<!-- 2218 -->
<g id="node15" class="node">
<title>2218</title>
<ellipse fill="white" stroke="black" cx="484" cy="-403.51" rx="28.98" ry="28.98"/>
<text text-anchor="middle" x="484" y="-401.31" font-family="Times,serif" font-size="9.00">2218</text>
</g>
<!-- 2575&#45;&gt;2370 -->
<g id="edge4" class="edge">
<title>2575&#45;&gt;2370</title>
<path fill="none" stroke="red" stroke-width="0.21" d="M43,-187.86C43,-179.82 43,-170.92 43,-162.38"/>
<polygon fill="red" stroke="red" stroke-width="0.21" points="46.5,-162.22 43,-152.22 39.5,-162.22 46.5,-162.22"/>
</g>
<!-- 3184&#45;&gt;1194 -->
<g id="edge11" class="edge">
<title>3184&#45;&gt;1194</title>
<path fill="none" stroke="red" stroke-width="0.28" d="M172.25,-187.86C171.45,-179.66 170.56,-170.56 169.71,-161.85"/>
<polygon fill="red" stroke="red" stroke-width="0.28" points="173.19,-161.51 168.73,-151.9 166.22,-162.19 173.19,-161.51"/>
</g>
</g>
</svg>
